
    <svg xmlns="http://www.w3.org/2000/svg" xmlns:xlink="http://www.w3.org/1999/xlink" style="display: none;">

        <!--ICON USER-->

        <symbol id="user" viewBox="0 0 24 24">
            <g fill="none" stroke="currentColor" stroke-width="1.5"><circle cx="12" cy="6" r="4"/>
                <path d="M20 17.5c0 2.485 0 4.5-8 4.5s-8-2.015-8-4.5S7.582 13 12 13s8 2.015 8 4.5Z"/>
            </g>
        </symbol>

        <!--ICON DASHBOARD-->
        <symbol id="dashboard"  viewBox="0 0 25 25">
            <path fill="#F0FDF4" d="M13 8V4q0-.425.288-.712T14 3h6q.425 0 .713.288T21 4v4q0 .425-.288.713T20 9h-6q-.425 0-.712-.288T13 8M3 12V4q0-.425.288-.712T4 3h6q.425 0 .713.288T11 4v8q0 .425-.288.713T10 13H4q-.425 0-.712-.288T3 12m10 8v-8q0-.425.288-.712T14 11h6q.425 0 .713.288T21 12v8q0 .425-.288.713T20 21h-6q-.425 0-.712-.288T13 20M3 20v-4q0-.425.288-.712T4 15h6q.425 0 .713.288T11 16v4q0 .425-.288.713T10 21H4q-.425 0-.712-.288T3 20m2-9h4V5H5zm10 8h4v-6h-4zm0-12h4V5h-4zM5 19h4v-2H5zm4-2"/>
        </symbol>

        <!--ICON PRODUCT-->
        <symbol id="product" viewBox="0 0 2048 2048">
            <path fill="#F0FDF4" d="m960 120l832 416v1040l-832 415l-832-415V536zm625 456L960 264L719 384l621 314zM960 888l238-118l-622-314l-241 120zM256 680v816l640 320v-816zm768 1136l640-320V680l-640 320z"/>
        </symbol>
        
        <!--ICON CATEGORY-->
        <symbol id="category" viewBox="0 0 24 24">
            <path fill="#F0FDF4" d="M7.425 9.475L11.15 3.4q.15-.25.375-.363T12 2.925t.475.113t.375.362l3.725 6.075q.15.25.15.525t-.125.5t-.35.363t-.525.137h-7.45q-.3 0-.525-.137T7.4 10.5t-.125-.5t.15-.525M17.5 22q-1.875 0-3.187-1.312T13 17.5t1.313-3.187T17.5 13t3.188 1.313T22 17.5t-1.312 3.188T17.5 22M3 20.5v-6q0-.425.288-.712T4 13.5h6q.425 0 .713.288T11 14.5v6q0 .425-.288.713T10 21.5H4q-.425 0-.712-.288T3 20.5m14.5-.5q1.05 0 1.775-.725T20 17.5t-.725-1.775T17.5 15t-1.775.725T15 17.5t.725 1.775T17.5 20M5 19.5h4v-4H5zM10.05 9h3.9L12 5.85zm7.45 8.5"/>
        </symbol>

        <!--ICON USERS-->
        <symbol viewBox="0 0 24 24" id="users">
            <path fill="none" stroke="currentColor" stroke-linecap="round" stroke-width="2" d="M16 19h4a1 1 0 0 0 1-1v-1a3 3 0 0 0-3-3h-2m-2.236-4a3 3 0 1 0 0-4M3 18v-1a3 3 0 0 1 3-3h4a3 3 0 0 1 3 3v1a1 1 0 0 1-1 1H4a1 1 0 0 1-1-1Zm8-10a3 3 0 1 1-6 0a3 3 0 0 1 6 0Z"/>
        </symbol>

        <!--ICON LOGOUT-->
        <symbol viewBox="0 0 24 24" id="logout">
            <path fill="none" stroke="currentColor" stroke-linecap="round" stroke-linejoin="round" stroke-width="1.5" d="M15 4.001H5v14a2 2 0 0 0 2 2h8m1-5l3-3m0 0l-3-3m3 3H9"/>
        </symbol>

        <symbol  viewBox="0 0 24 24" id="search">
            <path fill="none" stroke="#99A1AF" stroke-linecap="round" stroke-linejoin="round" stroke-width="1.5" d="m21 21l-4.343-4.343m0 0A8 8 0 1 0 5.343 5.343a8 8 0 0 0 11.314 11.314"/>
        </symbol>

        <!--ICON PLUS-->
        <symbol  viewBox="0 0 24 24" id="plus">
            <path fill="#fff" d="M18 12.998h-5v5a1 1 0 0 1-2 0v-5H6a1 1 0 0 1 0-2h5v-5a1 1 0 0 1 2 0v5h5a1 1 0 0 1 0 2"/>
        </symbol>

        <symbol  viewBox="0 0 24 24" id="download">
            <path fill="#fff" d="M4 4a2 2 0 0 1 2-2h8a1 1 0 0 1 .707.293l5 5A1 1 0 0 1 20 8v12a2 2 0 0 1-2 2H6a2 2 0 0 1-2-2zm13.586 4L14 4.414V8zM12 4H6v16h12V10h-5a1 1 0 0 1-1-1zm0 7.5a1 1 0 0 1 1 1v2.586l.293-.293a1 1 0 0 1 1.414 1.414l-2 2a1 1 0 0 1-1.414 0l-2-2a1 1 0 1 1 1.414-1.414l.293.293V12.5a1 1 0 0 1 1-1"/>
        </symbol>
    </svg>

